# xmcd
#
# Track frame offsets:
#	150
#	16465
#	30848
#	46976
#	62600
#	79877
#	99920
#	117783
#	133393
#	151626
#
# Disc length: 2229 seconds
#
# Revision: 1
# Processed by: cddbd v1.5.1PL0 Copyright (c) Steve Scherf et al.
# Submitted via: CDex 1.50Beta5
#
DISCID=6f08b30a
DTITLE=ちあきなおみ - ちあきなおみ1
DYEAR=1900
DGENRE=
TTITLE0=雨に濡れた慕情
TTITLE1=禁じられた恋の島
TTITLE2=喝采
TTITLE3=円舞曲
TTITLE4=さだめ川
TTITLE5=新宿慕情
TTITLE6=矢切の渡し
TTITLE7=花吹雪
TTITLE8=ルージュ
TTITLE9=夜間飛行
EXTD=
EXTT0=
EXTT1=
EXTT2=
EXTT3=
EXTT4=
EXTT5=
EXTT6=
EXTT7=
EXTT8=
EXTT9=
PLAYORDER=
